<svg xmlns="http://www.w3.org/2000/svg" viewBox="0 0 855.5 739.19"><defs><style>.cls-1{fill:#fffaf2;}.cls-2{fill:#ff9b5d;}.cls-3{fill:#4b4b4b;}</style></defs><g id="レイヤー_2" data-name="レイヤー 2"><rect class="cls-1" width="855.5" height="739.19"/></g><g id="レイヤー_1" data-name="レイヤー 1"><path class="cls-2" d="M643.6,87.32c19.39,16.56,34.53,36.89,43.67,60.22a152,152,0,0,1,8.2,77.25c-4.26,27.27-15.92,55.8-37.05,68.26s-51.7,9.3-77.4,2.68S534.2,279.18,511.66,267c-22.7-12.14-47-26.17-55.49-46.82s-1.42-47.77,9.93-70.63c11.19-23,26.64-41.77,45.72-58.48,18.91-16.87,41.61-31.37,64.94-32.32S624.06,70.77,643.6,87.32Z"/><path class="cls-2" d="M240,260.73c3.2,13.5-11.7,29.2-30.8,44.4s-42.6,29.9-55.5,22.3-15.2-37.2-6.7-58.2a52.87,52.87,0,0,1,48.2-33.3C215.64,235.53,236.84,247.13,240,260.73Z"/><path class="cls-3" d="M295.93,285.39c18.4,3.39,40.75,11.17,54.47,27.73s18.82,42.3,8.35,59-36.64,24.9-57.58,31-36.65,9.9-53.06,10.75-33.39-1.13-43.29-10.75-12.73-26.6-13.44-41.31a163.74,163.74,0,0,1,3.54-40.47c2.54-13.3,6.22-27.44,15.42-33.81s23.77-4.67,38.34-4.53S277.54,282.13,295.93,285.39Z"/><path class="cls-3" d="M700.55,441.49c10.34,14.34,20.87,27.11,20.87,41.84S711,514.65,695,524.11s-37.85,12.09-53.26,3.8-24.58-27.41-29.85-48.09-6.63-42.82,3.71-57.16,32.29-20.58,48.38-15.8S690.21,427.25,700.55,441.49Z"/><path class="cls-2" d="M819.54,544.44c10,35.2-9.81,74.85-41.44,96.9-31.62,22.23-75.05,26.67-99.4,8.71-24.35-18.13-29.8-58.85-18.17-96.19,11.81-37.52,40.52-71.83,74.87-73.61S809.54,509.41,819.54,544.44Z"/><path class="cls-2" d="M208.57,569.64c12.86,7.33,21.54,23.18,29,42.77s14.21,42.78,6,58c-8.08,15.41-31,22.74-50.4,22.29s-35.3-8.83-48.91-16.75-25.13-15.26-43.38-27.82C82.79,635.59,57.81,617.65,55,598.35s16.15-39.93,37.54-45.76,45,3.44,65.51,7.33S195.71,562.46,208.57,569.64Z"/><path class="cls-3" d="M389.46,609c-13.5.68-25.31-22.33-25.12-41.14S377,534.39,388,524.72c11-9.82,20.66-14.72,36.67-21.49s38.47-15.44,52.73-7.7,20.56,31.86,11.86,45.3-32.39,16.2-51.81,29.7S403,608.35,389.46,609Z"/><path class="cls-3" d="M257.38,142.19c-12.34,6.28-28.82,4.34-43.66-2.33-14.73-6.5-27.79-17.88-39.8-38.5s-22.84-50.45-12.62-64.2,41.91-11.34,66.31-5.74c24.24,5.72,41.32,14.78,49.86,28.07C285.91,72.6,285.94,90.1,282,106,277.85,121.69,269.69,136.05,257.38,142.19Z"/></g></svg>