<svg id="レイヤー_1" data-name="レイヤー 1" xmlns="http://www.w3.org/2000/svg" viewBox="0 0 632.27 262.37"><defs><style>.cls-1{fill:#2a2323;}.cls-2{fill:#fffaf2;}</style></defs><path class="cls-1" d="M51.8,132.6c-21.56,0-42.61-2.45-42.61-31.74,0-4.14,2.18-5,4-5,4.45,0,8.71,1.42,12.83,2.79,1,.34,2,.67,3,1,5.49,1.68,11.73,3.59,18,3.59,2.78,0,11.87-.56,11.87-7.69,0-3.08-.84-4.87-3-6.39C52.75,86.92,49.05,86,45.14,85c-1-.25-1.94-.49-2.9-.75C24,79,5.52,65.14,5.52,45.89,5.52,20.56,29.3,7.3,52.8,7.3c19.11,0,40.76,0,40.76,28.23,0,3.87-2.37,6.18-6.34,6.18-4.48,0-9.22-1.21-13.39-2.28L72,39c-5.49-1.22-11.76-2.62-17.89-2.62-3.81,0-10.2.94-10.2,7.19,0,5.49,8.29,8.44,17.9,11.85,15.08,5.36,35.73,12.71,35.73,36.11C97.57,117.23,74.3,132.6,51.8,132.6Z" transform="translate(-3.52 -5.3)"/><path class="cls-2" d="M52.8,9.3c20.38,0,38.76.34,38.76,26.23,0,2.84-1.5,4.18-4.34,4.18-4.85,0-10-1.5-14.71-2.67-6-1.34-12.19-2.68-18.37-2.68-6,0-12.2,2.18-12.2,9.19,0,17.05,53.63,11,53.63,48,0,23.89-21.22,39.09-43.77,39.09-22.23,0-40.61-3-40.61-29.74,0-1.5.17-3,2-3,5.18,0,10.36,2.17,15.2,3.67,6,1.84,12.2,3.68,18.55,3.68,6.18,0,13.87-2.17,13.87-9.69,0-3.51-1-6-3.84-8-4.18-3-9.36-3.85-14.21-5.18C26.4,77.64,7.52,64.61,7.52,45.89,7.52,21.33,30.91,9.3,52.8,9.3m0-4C28.31,5.3,3.52,19.24,3.52,45.89c0,20.29,19.16,34.85,38.15,40.27,1,.29,2,.54,3,.78,3.72.94,7.24,1.83,10,3.8,1.42,1,2.18,2.06,2.18,4.78,0,5.13-6.9,5.69-9.87,5.69-5.92,0-12-1.86-17.38-3.5-.93-.29-1.89-.61-2.91-.95-4.07-1.36-8.69-2.9-13.46-2.9-1.41,0-6,.5-6,7,0,13.87,4.59,23.16,14,28.4,8.47,4.7,19.7,5.34,30.58,5.34a52,52,0,0,0,32.91-11.51A40.58,40.58,0,0,0,99.57,91.51c0-24.81-21.42-32.43-37.06-38-8.52-3-16.57-5.89-16.57-10,0-3.44,2.76-5.19,8.2-5.19,5.89,0,12,1.37,17.45,2.57l1.74.44c4.29,1.1,9.15,2.34,13.89,2.34,5.07,0,8.34-3.21,8.34-8.18,0-13.4-4.59-22.06-14-26.45C73.39,5.3,62.92,5.3,52.8,5.3Z" transform="translate(-3.52 -5.3)"/><path class="cls-1" d="M188.1,129.76c-10.47,0-10.76-6.08-11-10.51-.28-5.77-.55-11.21-18.43-11.21-13.14,0-13.51,4.3-14,9.73-.46,5.27-1,11.83-14.08,11.83H127.8c-8,0-18.06,0-18.06-14.87,0-16,24.57-93.74,38.48-103.08,4.33-3,8.26-3,12.81-3,7.65,0,12.18,1.08,17.25,7.24,10.24,12.59,34.21,82.92,34.21,100.36C212.49,129.76,196.62,129.76,188.1,129.76ZM160.81,50.08c-2.49,4.24-6.47,22.85-6.47,26.56,0,1.76.41,3.34,5.35,3.34h3.51c1.16,0,3.85-.34,3.85-3.51C167.05,72.06,163.37,54,160.81,50.08Z" transform="translate(-3.52 -5.3)"/><path class="cls-2" d="M161,10.64c7,0,11,.83,15.71,6.51,10.19,12.54,33.75,82.71,33.75,99.09,0,11.52-14.2,11.52-22.39,11.52-19.88,0,5.35-21.72-29.41-21.72-28.57,0-4.51,21.56-28.07,21.56H127.8c-9.28,0-16.06-.55-16.06-12.87,0-16.37,24.9-92.9,37.6-101.42,3.84-2.67,7.18-2.67,11.69-2.67M159.69,82h3.51c3.35,0,5.85-2,5.85-5.51,0-3.84-4.34-28.91-8.35-28.91-3.34,0-8.36,25.4-8.36,29.08,0,4.51,3.51,5.34,7.35,5.34M161,6.64c-4.67,0-9.09,0-13.95,3.37C138.4,15.88,127.64,43.69,122,59.75c-6.87,19.56-14.26,45.11-14.26,55,0,16.87,12.07,16.87,20.06,16.87h2.82c14.88,0,15.63-8.55,16.07-13.65.24-2.69.46-4.4,1.49-5.5s3.7-2.41,10.51-2.41c9.5,0,13.26,1.72,14.74,3.15s1.55,3.22,1.69,6.15c.21,4.34.61,12.42,13,12.42,4.35,0,10.31,0,15.47-1.62,7-2.22,10.92-7.16,10.92-13.9,0-9.65-6.85-33.33-13.27-52.27s-15.47-42.08-21.38-49.34c-5.57-6.76-10.7-8-18.81-8ZM159.69,78c-2.71,0-3.22-.51-3.23-.52a1.92,1.92,0,0,1-.12-.82c0-2.73,2.38-14.43,4.52-21.24,2.09,6.68,4.19,18.26,4.19,21.07,0,.57,0,1.51-1.85,1.51Z" transform="translate(-3.52 -5.3)"/><path class="cls-1" d="M306.34,129.93a17.32,17.32,0,0,1-7.52-1.35c-5.27-2.45-11.27-13.65-19.81-30.44-4.32-8.5-10.15-20-12.8-21.94-.44,1-1.31,4-1.31,12.3,0,4.39.17,8.87.33,13.21s.34,8.89.34,13.36c0,9.64-4.67,14.53-13.87,14.53-2.53,0-11.07-.28-14.9-3.89-5.71-5.47-8.48-26.38-8.48-63.94,0-30.24,4.66-47.23,13.86-50.51,4-1.45,7.25-1.45,11-1.45,13.48,0,22.52,19.35,29.79,34.91,3.06,6.55,7.66,16.4,9.87,16.71.45-.4,2.52-3.14,2.45-20.37v-.68c0-3-.13-6-.25-8.85s-.26-6-.26-9C294.81,10,302.63,10,310.18,10c3.56,0,9.9,1,12.78,3.92,7.63,7.46,8.77,35,8.77,50.71V77.47c0,27.92-3,43.7-9.17,48.23C317.29,129.6,311.42,129.93,306.34,129.93Z" transform="translate(-3.52 -5.3)"/><path class="cls-2" d="M253.21,11.81c20.21,0,31.07,51.63,39.76,51.63,4.68,0,4.35-19.55,4.35-23.06,0-6-.51-11.86-.51-17.88,0-10,4.85-10.52,13.37-10.52,3.34,0,9,1,11.36,3.34,7.52,7.35,8.19,38.43,8.19,49.29V77.47c0,9.69-.17,40.6-8.35,46.62-4.51,3.34-9.53,3.84-15,3.84a15.3,15.3,0,0,1-6.68-1.17C290,122.25,272.25,74,265.9,74c-3,0-3,12.2-3,14.54,0,8.85.67,17.71.67,26.57,0,8.18-3.51,12.53-11.87,12.53-3.84,0-10.69-.67-13.53-3.34-7.85-7.52-7.85-51.13-7.85-62.49,0-10.86.33-44.28,12.53-48.63,3.67-1.33,6.68-1.33,10.36-1.33m0-4c-3.8,0-7.39,0-11.73,1.58-10.2,3.63-15.16,20.76-15.16,52.38,0,50.8,5.18,61.64,9.08,65.37,4.27,4,12.82,4.46,16.3,4.46,10.23,0,15.87-5.87,15.87-16.53,0-4.51-.18-9-.34-13.44s-.33-8.78-.33-13.13a70,70,0,0,1,.36-7.81c2.82,4.3,6.82,12.17,10,18.35,9,17.69,14.88,28.62,20.74,31.35a19.23,19.23,0,0,0,8.37,1.54c5.4,0,11.65-.36,17.42-4.63,4.27-3.14,10-11.73,10-49.83V64.61c0-19.61-1.63-44.56-9.39-52.15C320.8,8.92,313.53,8,310.18,8c-7.33,0-17.37,0-17.37,14.52,0,3.09.13,6.15.26,9.11s.25,5.85.25,8.77v.69c0,9.81-.61,14.63-1.17,17-2.1-2.94-5.06-9.27-7.34-14.16C277.3,27.8,268,7.81,253.21,7.81Z" transform="translate(-3.52 -5.3)"/><path class="cls-1" d="M392.3,130.77c-13.92,0-15.7-9.38-15.7-17.54,0-2.07.09-4.1.17-6.06s.16-3.78.16-5.64c0-16.07-9.84-33.43-18.51-48.74-7.37-13-13.73-24.22-13.73-33.3,0-8.74,16-9.68,22.88-9.68,3.3,0,8,.34,10.94,3.26,2.68,2.59,6,10.66,9.48,19.2,2.57,6.27,6.4,15.63,8.22,17.25,2.52-1,7-13.5,9.19-19.63,2.33-6.53,4.34-12.17,6.23-14.5C415.84,10,422.06,10,427.05,10c5.9,0,19.71,0,19.71,10,0,8.25-6.62,20.57-14.28,34.85S416.83,84,415.33,95.44a84.53,84.53,0,0,0-.31,8.93v1.3c0,9.34,0,15.51-3,19.54C408.63,129.84,402,130.77,392.3,130.77Z" transform="translate(-3.52 -5.3)"/><path class="cls-2" d="M367.57,11.81c3.18,0,7.18.33,9.52,2.67,5.18,5,14.71,37.09,18.88,37.09,6.19,0,12.87-29.57,17.21-34.92,3.51-4.51,8.53-4.67,13.87-4.67,5.68,0,17.71,0,17.71,8,0,15.87-28.4,52.13-31.41,75.18a85.63,85.63,0,0,0-.33,9.19c0,19.22.5,24.4-20.72,24.4-10.69,0-13.7-5.68-13.7-15.54,0-4,.33-7.85.33-11.7,0-29.91-32.24-62.82-32.24-82,0-7,16-7.68,20.88-7.68m0-4a64.49,64.49,0,0,0-13.14,1.31c-9.71,2.19-11.74,6.85-11.74,10.37,0,9.61,6.48,21.05,14,34.29,8.55,15.09,18.25,32.21,18.25,47.75,0,1.82-.08,3.63-.16,5.55s-.17,4-.17,6.15c0,4.83,0,19.54,17.7,19.54,10.28,0,17.44-1.07,21.35-6.37,3.38-4.56,3.37-11,3.37-20.73v-1.3a83.35,83.35,0,0,1,.3-8.72c1.47-11.07,9.68-26.36,16.92-39.85,7.79-14.52,14.52-27,14.52-35.8,0-3.09-1.25-8.61-9.68-10.88a47.21,47.21,0,0,0-12-1.14c-5.13,0-12.16,0-17,6.19-2,2.47-3.79,7.34-6.54,15-1.78,5-4.83,13.53-7.11,17.09-1.86-3.31-4.6-10-6.56-14.79C385.52,21,382.7,14.36,379.9,11.63c-3.45-3.43-8.69-3.82-12.33-3.82Z" transform="translate(-3.52 -5.3)"/><path class="cls-1" d="M508.61,130.55a17.57,17.57,0,0,1-2.17-.14c-5.55-.82-11.77-10-11.77-14.33,0-3.08,1.12-8.81,5.28-10.94,1.45-1,2.91-1.87,4.33-2.74C511.36,98,517,94.58,517,86.48c0-9.3-5-17.58-8.94-17.58a3,3,0,0,0-1.23.27l-.11,0c-2,.73-4.06,9.37-5.71,16.31-4.25,17.82-10.08,42.23-29.63,42.23-.55,0-1.11,0-1.69-.06-29.89-2.2-29.89-29.13-29.89-38,0-26.7,28.5-46.66,54-46.66a53.18,53.18,0,0,1,33,11.88c10.08,8.21,15.63,19.23,15.63,31,0,18.1-10.08,35.1-25.09,42.28A19.22,19.22,0,0,1,508.61,130.55ZM478.46,68.86c-6.76.87-13.37,15.43-13.37,22.22,0,4.38,2.21,12,3.94,12.6,3.35-3,9.43-29,9.43-34.14Z" transform="translate(-3.52 -5.3)"/><path class="cls-2" d="M493.74,45.06c22.49,0,46.65,16.84,46.65,40.9,0,16.84-9.1,33.37-23.95,40.48a17.22,17.22,0,0,1-7.83,2.11,15.51,15.51,0,0,1-1.9-.12c-4.29-.63-10-8.79-10-12.35,0-2.72,1-7.63,4.29-9.2,8.57-5.76,18-9.31,18-20.4C519,77,513.75,66.9,508,66.9a5,5,0,0,0-2,.44c-8.63,3.18-7.07,58.42-34.65,58.42-.51,0-1,0-1.54-.05-25.53-1.89-28-22.07-28-36,0-26,27.93-44.66,52-44.66m-24.48,60.67c4.4,0,11.2-31.28,11.2-36.19,0-1.15.2-2.72-1.37-2.72-8.78,0-16,16.84-16,24.26,0,3.25,1.88,14.65,6.17,14.65m24.48-64.67c-12.86,0-26.88,5-37.5,13.43-11.92,9.44-18.49,21.95-18.49,35.23,0,6.59.51,16.29,4.93,24.42,5.11,9.38,14.13,14.62,26.81,15.55.62.05,1.24.07,1.84.07,8.77,0,15.94-4.63,21.34-13.78v.1c0,5.14,6.78,15.33,13.46,16.3a17.63,17.63,0,0,0,2.48.17,21.09,21.09,0,0,0,9.58-2.52c15.67-7.52,26.2-25.23,26.2-44.07,0-12.4-5.81-24-16.36-32.57a55.21,55.21,0,0,0-34.29-12.33ZM507.61,71a1,1,0,0,1,.4-.09c2.35,0,6.94,7.06,6.94,15.58,0,6.66-4.24,9.6-11.72,14.22-1.41.86-2.85,1.76-4.3,2.72a10,10,0,0,0-.95.58c2.08-6.1,3.6-12.49,4.92-18,1.36-5.71,3.22-13.49,4.71-15ZM468.89,99.9a29.43,29.43,0,0,1-1.8-8.82c0-5.36,4.55-15.61,9.1-19.08-.47,3.13-1.53,8.53-3,14.35a89.64,89.64,0,0,1-4.29,13.55Z" transform="translate(-3.52 -5.3)"/><path class="cls-1" d="M80.59,262.91c-4.08,0-8.15,0-12.21-.06s-8-.07-12-.07H55.11c-17.86,0-21.77-1.74-23.24-3.44a7.5,7.5,0,0,1-1.46-2.52,1.07,1.07,0,0,0-.07-.19l-.5.45c-2.33,2.07-5,4.43-8.26,5.25l-.79.2-.69-.41c-3.54-2-12.9-11.79-12.9-17,0-3.12,3.34-6.9,8.79-12.83,4.3-4.66,9.64-10.46,9.64-13.45,0-1.09,0-2.57-4.95-2.57-.81,0-1.61,0-2.35.07s-1.36.06-1.94.06c-7.34,0-10.76-3.51-10.76-11a21.53,21.53,0,0,1,.56-4.43c.48-2.49,3.24-5,19-5.48-5.62-1-8.85-4-8.85-8.39a16.07,16.07,0,0,1,.92-6c1.15-3.14,4.58-3.66,5.87-3.86,3.72-.54,7.43-.84,11-1-4.36.08-8.8.14-13.21.14-2.46,0-10,0-10-7.62,0-3.08.18-6.58,1.52-9.26.91-2,3.08-3.39,5.93-3.83a64,64,0,0,1,7.11-.67,59.89,59.89,0,0,0,6.71-.63,3.3,3.3,0,0,0,1.21-.41,2.27,2.27,0,0,0-.39-1,6.21,6.21,0,0,1-.91-3.07c0-5.53,18-7.36,18.21-7.36,5.19,0,7,3.21,8.48,5.78,1.14,2,2.22,3.9,4.83,5a14.14,14.14,0,0,0,5.51.77h1.58c6.63,0,8.12-3.43,9.57-6.75,1-2.24,2.18-5,5.34-5,.2,0,20.82.62,20.82,8.28a7.83,7.83,0,0,1-.57,2.69,6.5,6.5,0,0,0-.3,1,9.7,9.7,0,0,0,1.89.53l.43.09a36.28,36.28,0,0,0,5.86.4c6,.08,13.48.19,13.48,12.41,0,8-5.08,8.66-9.84,8.66-4.14,0-8.31-.09-12.34-.19S97,176,92.88,176H91.45a30.7,30.7,0,0,0-5.23.34,28.1,28.1,0,0,0,6.4.51c2.28,0,4.53-.12,6.91-.26s4.85-.26,7.34-.26c10.26,0,15.47,3.27,15.47,9.71a16.14,16.14,0,0,1-.46,3.89,6,6,0,0,1-3.27,3.92c-2.84,1.6-12.6,1.64-13.7,1.64-2.45,0-4.89-.06-7.25-.13s-4.74-.13-7.14-.13a23.44,23.44,0,0,0-3.33.2c1.41.13,3.94.26,8.43.26h2.49c3.11,0,6.26-.07,9.3-.13s6.24-.13,9.4-.13c4.44,0,16.25,0,16.25,12.07a6.67,6.67,0,0,1-1.66,4.44c-1.06,1.23-3.69,4.32-31.08,4.91h.93l3.55,0h6.42c3.62,0,14.65,0,14.65,8.3a18.28,18.28,0,0,1-1.65,7.95c-1.4,2.69-5.34,3.83-13.19,3.83-1.42,0-2.78,0-3.91-.07-.77,0-1.44,0-2,0H104c-7.83,0-9.43,1.43-9.74,2.14.89.48,3.66,1,8,1,2.55,0,5.18,0,7.75-.12,1.12-.06,2.26-.15,3.41-.24,1.78-.14,3.63-.29,5.45-.29h.58c3.61,0,9.65,0,9.65,7.36a13.23,13.23,0,0,1-3.08,9.27C122.2,260.56,106.91,262.91,80.59,262.91ZM44.18,239.76c1.71.57,8.34,1,12.35,1,4.94,0,8.24-.86,8.85-1.52v-.8h0s-1-1.14-7.28-1.14c-1,0-1.92,0-2.85-.07s-1.7-.07-2.51-.07C47.24,237.15,44.49,238,44.18,239.76Zm18.46-22.84c3.63.18,7.66.28,10.36.28,4.69,0,9.46-.1,14.08-.2l5.35-.11H89.35c-3.49,0-7-.07-10.44-.13s-6.91-.13-10.35-.13C66.71,216.63,64.61,216.74,62.64,216.92Zm-23-21.36c2.74.1,5.58.2,8.36.2h2a21.88,21.88,0,0,0,3.33-.19,29.82,29.82,0,0,0-4.39-.27h-.6c-2.93,0-5.94.13-8.85.25Zm10-19.55h4c.18,0,.46,0,.75,0-.26,0-.6,0-1,0-2,0-4,0-6.08,0Z" transform="translate(-3.52 -5.3)"/><path class="cls-2" d="M85.69,144.28c3.4,0,18.82,1.57,18.82,6.28,0,1.44-.91,2.61-.91,4.05s2.74,2,3.92,2.22c8.5,1.57,17.78-2.74,17.78,10.86,0,5.75-2.61,6.66-7.84,6.66-8.24,0-16.35-.39-24.58-.39H91.45c-2.81,0-8.38.18-8.38,2l.65,1.44c2.1,1.44,6.28,1.44,8.9,1.44,4.7,0,9.41-.52,14.25-.52,5.36,0,13.47.65,13.47,7.71a14.33,14.33,0,0,1-.4,3.4,4,4,0,0,1-2.22,2.62c-2.09,1.17-10.07,1.43-12.81,1.43-4.84,0-9.55-.26-14.39-.26-1.43,0-6.93,0-6.93,2.23l.92,1.43c1.22.72,7.34.8,11.11.8h2.49c6.27,0,12.42-.26,18.7-.26,7.19,0,14.25,1.31,14.25,10.07a4.69,4.69,0,0,1-1.18,3.13c-3.58,4.2-30.83,4.32-39.25,4.32H89.35c-6.93,0-13.86-.26-20.79-.26-2.23,0-15,.39-15,3.27,2.35,1,16.21,1.3,19.48,1.3,9.42,0,18.83-.41,28.25-.41l3.53,0h3.92l2.52,0c5.06,0,12.65.47,12.65,6.3a16.36,16.36,0,0,1-1.44,7.06c-1.21,2.32-6.72,2.72-11.4,2.72-2.42,0-4.61-.11-5.86-.11H104c-3.87,0-11.82.21-11.82,4.45,0,2.61,8.24,2.74,10.07,2.74,2.62,0,5.23,0,7.85-.13,2.87-.13,5.88-.52,8.76-.52h.58c4.08,0,7.65.12,7.65,5.36,0,3.14-.52,5.49-2.61,8-5.1,6.14-35.57,6.27-43.93,6.27-8.11,0-16.22-.13-24.19-.13H55.11c-5.53,0-19.45-.11-21.73-2.74-1.43-1.57-.91-3.14-2.87-4.19-2.88,2.36-5.75,5.62-9.42,6.54-3.4-2-11.89-11.24-11.89-15.3,0-5.36,18.43-19.22,18.43-26.28,0-3.95-3.52-4.57-6.95-4.57-1.57,0-3.11.13-4.29.13-6.41,0-8.76-2.75-8.76-9a20.3,20.3,0,0,1,.52-4.05c.74-3.81,17.28-3.92,22.21-3.92h.8c5.62,0,11.25.39,16.87.39h2c2.63,0,5.43-.16,7.49-1.71v-.13c0-2.51-6.1-2.62-8.55-2.62h-.6c-6.14,0-12.29.53-18.43.53-4.45,0-11.64-1.05-11.64-6.8a14.2,14.2,0,0,1,.78-5.23c.66-1.83,2.62-2.36,4.32-2.62A156.48,156.48,0,0,1,45.59,178l8.06,0c1.44,0,3.66,0,3.66-2S54.83,174,53.39,174c-10.85,0-21.57.39-32.43.39-4.05,0-8-.65-8-5.62,0-2.61.13-6,1.3-8.37.79-1.7,2.75-2.48,4.45-2.74,4.58-.79,9.28-.52,13.86-1.31,1.31-.26,2.88-.78,2.88-2.35s-1.31-2.36-1.31-4.06c0-2.74,13.86-5.36,16.21-5.36,7.46,0,5.49,7.72,12.56,10.59a15.83,15.83,0,0,0,6.26.92h1.58c12.81,0,10.07-11.77,14.91-11.77M56.53,242.74c2.35,0,10.85-.26,10.85-3.4v-.92c0-3.13-7.32-3.13-9.28-3.13s-3.66-.14-5.36-.14c-3.53,0-10.59.14-10.59,5a1.55,1.55,0,0,0,.65,1.18c1.44,1.18,11.51,1.44,13.73,1.44M85.69,140.28c-4.47,0-6.16,3.89-7.18,6.22-1.4,3.22-2.41,5.55-7.73,5.55H69.2a12.67,12.67,0,0,1-4.71-.6c-1.92-.79-2.69-2-3.89-4.12-1.54-2.7-3.87-6.79-10.22-6.79a54,54,0,0,0-10,1.79c-5.3,1.4-10.2,3.29-10.2,7.57a7.46,7.46,0,0,0,.5,2.66c-1.68.21-3.41.31-5.23.41a65.39,65.39,0,0,0-7.34.7c-3.48.55-6.18,2.35-7.41,5-1.5,3-1.7,6.81-1.7,10.1a8.79,8.79,0,0,0,4.6,8.22A11.82,11.82,0,0,0,16.82,178a7.06,7.06,0,0,0-1.42,2.33A18.19,18.19,0,0,0,14.35,187a9.18,9.18,0,0,0,2.85,6.89c-6.21.65-12.07,1.91-13,6.6a23.59,23.59,0,0,0-.59,4.81c0,8.64,4.29,13,12.76,13,.64,0,1.31,0,2-.07s1.51-.06,2.26-.06a7.69,7.69,0,0,1,2.94.36,1.22,1.22,0,0,1,0,.21c0,2.21-5.92,8.64-9.11,12.1-5.95,6.47-9.32,10.31-9.32,14.18,0,6.41,10.43,16.77,13.9,18.76l1.4.81,1.56-.39a19.05,19.05,0,0,0,7.66-4.42,9.73,9.73,0,0,0,.68.85c2.17,2.45,7.25,4.08,24.71,4.08H56.4c4,0,8,0,12,.07s8.14.06,12.23.06c3.38,0,13.68,0,23.53-.84,17-1.47,21.46-4.45,23.48-6.88a15,15,0,0,0,3.53-10.53c0-7.46-5.19-9-9.06-9.28A7.48,7.48,0,0,0,126,234v-.05a20.25,20.25,0,0,0,1.87-8.85,8.93,8.93,0,0,0-4.62-8c7.4-1.26,8.8-2.9,9.67-3.93a8.69,8.69,0,0,0,2.14-5.73c0-6.91-3.56-10.26-6.55-11.85a18.93,18.93,0,0,0-6.45-1.93,7.42,7.42,0,0,0,1.77-3.34,18.28,18.28,0,0,0,.51-4.33,10.23,10.23,0,0,0-3.31-7.83c3.79-.55,8.27-2.63,8.27-10.47,0-14.2-9.3-14.33-15.45-14.41a34.53,34.53,0,0,1-5.54-.37l-.14,0a8.35,8.35,0,0,0,.34-2.32c0-6.23-8.46-8.17-11.24-8.8a61.8,61.8,0,0,0-11.58-1.48Z" transform="translate(-3.52 -5.3)"/><path class="cls-1" d="M207.76,265.66c-10.76,0-16-4.93-16-15.08v-2.74a20.92,20.92,0,0,1,.28-3l0-.13c.27-1.26.89-4.2,14.78-4.2,1.38,0,2.75.1,4.07.2s2.54.19,3.77.19c1.46-.35,3.49-8.37,3.49-20.62,0-3.31,0-6.72-.25-10.05-.31-3.16-2.14-4.19-7.52-4.19h-1.53l-1.51,0c-1.77,0-4.44,0-5.81.78-2.11,1.23-5.9,14.13-7.52,19.64-1.1,3.75-2,6.71-2.62,8.19a64.08,64.08,0,0,1-16.17,22.24l-.81.75c-3.21,3-7.21,6.71-12.31,6.71-4.95,0-17-10.66-17-16.25,0-1.77,1.64-3.22,4.92-6.11,6.78-6,19.4-17.12,19.4-34.55,0-1-1.56-1.41-4.9-1.41H164a8.19,8.19,0,0,0-5.73,2.23,7.46,7.46,0,0,1-4.73,2.08c-4.69,0-15.21-10.15-15.21-14.68a9,9,0,0,1,.82-3.67c1.51-3.48,29.74-39,32.48-40.87,2.12-1.46,4.12-2.83,7.41-2.83,3.62,0,14.55,3.4,14.55,9.58,0,3.68-3.11,8.68-6.11,13.53-2.06,3.31-4.61,7.44-4.61,9.09,0,0,1.3,2.31,14.47,2.31,1.36,0,2.71,0,4.07-.06s2.78-.07,4.17-.07l1,0,2.29,0c11.55,0,12.48-2.07,12.48-2.09,0-1.47-2.67-5.8-4.63-9-3.13-5.08-6.09-9.87-6.09-13.27,0-6.54,10-10.1,15.2-10.1,3.25,0,6,2.54,7.95,4.39l.35.32c2.66,2.67,29.34,35.2,30.67,38.18a9.58,9.58,0,0,1,1,4.22c0,4.91-10.37,15.46-15.2,15.46a4.42,4.42,0,0,1-3.78-1.83,7.69,7.69,0,0,1,.15,1.4V222.6a115.57,115.57,0,0,1-.66,11.84c-1.2,11.43-4,22.79-16,28.54-4.95,2.37-11.52,2.7-17.88,2.7Z" transform="translate(-3.52 -5.3)"/><path class="cls-2" d="M225.8,150.3c2.62,0,5.1,2.48,6.93,4.18,3,3,29.16,35.17,30.21,37.53a7.64,7.64,0,0,1,.78,3.4c0,3.79-9.41,13.46-13.2,13.46-2.75,0-2.23-2.61-4.06-2.61-.91,0-1.7.39-1.7,1.44a1.17,1.17,0,0,0-.13.65c0,.65.26,1.31.26,2.09V222.6a116.25,116.25,0,0,1-.65,11.64c-1.18,11.24-3.92,21.7-14.91,26.94-4.72,2.25-11.22,2.5-17,2.5l-4.55,0c-9.15,0-14-3.66-14-13.08v-2.74a19.68,19.68,0,0,1,.26-2.75c.52-2.48,10.59-2.61,12.82-2.61,2.61,0,5.23.39,7.84.39,5.1,0,5.49-18.83,5.49-22.62,0-3.4,0-6.8-.26-10.2-.53-5.52-5-6-9.51-6-1,0-2.06,0-3,0-2.09,0-5,0-6.8,1-4,2.36-9,24.32-11,28.77a62.56,62.56,0,0,1-15.69,21.57c-3.27,3-7.07,6.93-11.77,6.93-4.06,0-15-10.07-15-14.25,0-3.27,24.32-15.69,24.32-40.66,0-3.29-4.31-3.41-6.9-3.41H164c-6.15,0-7.19,4.31-10.46,4.31-3.53,0-13.21-9.15-13.21-12.68a7,7,0,0,1,.66-2.88c1.3-3,29.28-38.31,31.77-40,2.09-1.44,3.66-2.48,6.28-2.48,3.53,0,12.55,3.27,12.55,7.58,0,5.88-10.72,17.91-10.72,22.62,0,4.31,13.46,4.31,16.47,4.31,2.75,0,5.49-.13,8.24-.13.62,0,1.82,0,3.3,0,5.35,0,14.48-.4,14.48-4.09,0-4.31-10.72-16.87-10.72-22.23,0-5.1,9-8.1,13.2-8.1m0-4c-5.06,0-17.2,3.48-17.2,12.1,0,4,3.1,9,6.39,14.32a70.55,70.55,0,0,1,4,7c-1.24.41-4.07,1-10.15,1l-2.26,0-1,0c-1.42,0-2.84,0-4.22.07s-2.69.06-4,.06c-7.56,0-10.86-.77-12.19-1.25a63.62,63.62,0,0,1,4-7.1c3.29-5.31,6.41-10.33,6.41-14.58,0-7.52-11.75-11.58-16.55-11.58-3.91,0-6.37,1.69-8.55,3.18-1.55,1.07-7.33,7.91-17.19,20.33-5.52,7-14.94,19-16,21.39a10.91,10.91,0,0,0-1,4.47c0,3.58,3.55,7.72,6.52,10.56s7.16,6.12,10.69,6.12a9.41,9.41,0,0,0,6-2.5A6.33,6.33,0,0,1,164,208h.55a15.91,15.91,0,0,1,2.89.19c-.38,16.09-12.28,26.59-18.72,32.27-3.6,3.18-5.59,4.94-5.59,7.61,0,4,3.95,8.52,7.27,11.62,2.65,2.47,7.7,6.63,11.77,6.63,5.89,0,10.21-4,13.67-7.24l.8-.75a66.06,66.06,0,0,0,16.66-22.93c.69-1.57,1.58-4.59,2.7-8.41,1.45-4.94,4.82-16.41,6.76-18.55a16,16,0,0,1,4.65-.43l1.53,0h1.51c5.25,0,5.39,1,5.53,2.38.24,3.24.24,6.45.24,9.86,0,8.9-1.18,16.39-2.38,18.6-.88,0-1.79-.09-2.73-.17-1.36-.1-2.77-.2-4.22-.2a69.5,69.5,0,0,0-7.53.4c-2.47.3-8.28,1-9.2,5.39l0,.13,0,.13a23.23,23.23,0,0,0-.3,3.31v2.74c0,7.79,3.12,17.08,18,17.08h4.55c6.6,0,13.43-.35,18.75-2.9,13-6.18,16-18.7,17.16-30.12a117.42,117.42,0,0,0,.67-12.06v-9.9a7.42,7.42,0,0,0,1.63.17c3.73,0,8-3.54,10.88-6.51,2.36-2.42,6.32-7.05,6.32-11a11.57,11.57,0,0,0-1.17-5.11c-.31-.68-1.54-2.85-14.87-19.33-6.51-8.06-14.34-17.54-16.12-19.32l-.05-.05,0,0-.34-.32c-2.11-2-5.29-4.93-9.32-4.93Z" transform="translate(-3.52 -5.3)"/><path class="cls-1" d="M296.81,265c-3.43,0-8.12,0-12-3.05-6.7-5.42-7.42-33.44-7.42-45.24,0-12.79,2-16.51,15.33-16.51,12.73,0,12.73,11.42,12.73,17.55,0,1.11-.07,2.24-.14,3.33s-.13,2.1-.13,3.08c0,3.18,0,6.48,1,9.31a10.71,10.71,0,0,0,1.2,2.42c-.78-2.87-.78-6.37-.78-10.16v-12c0-11,.78-14.23,7.79-15.38-4.32,0-8.69.11-12.95.19-5.12.09-10.41.19-15.6.19-10.29,0-12.46-4.21-12.46-7.75,0-2.27,0-5.69,2.48-7.6.93-.71,2.76-1.54,7.64-2.17-5.41-1.2-5.41-6.12-5.41-9.84,0-1.33.13-13.06,4.48-17.6,4.93-4.93,17.94-7.41,38.71-7.41h29c21.72,0,34.73,3.07,38.67,9.14,3.4,5.17,3.86,11.25,3.86,16.52,0,4.76-3.12,7.12-6.74,8.29,9.45,1.1,11.58,6.05,11.58,10.28,0,1.34,0,4.12-2.19,5.87-1.85,1.57-8.94,2-13.47,2.11,6.1,2.56,7,9.21,7,15.16,0,19.35-2.57,26.23-12.4,28.66,3.16,0,6.33-.06,9.48-.06,3.45,0,8.93,1.71,8.93,6.31a10,10,0,0,1-2.58,7.33c-3.81,4.39-17.71,6.44-43.75,6.44h-1.17c-4.4,0-8.9-.1-13.25-.2s-8.8-.19-13.16-.19A59.92,59.92,0,0,0,307.88,264l-2.81.62a28.07,28.07,0,0,1-5.65.45ZM303,166.35a3.84,3.84,0,0,0,1.53.25h1.55a9.49,9.49,0,0,0,3.12-.37c.56-.22.65-.42.65-.91h0a4.28,4.28,0,0,0-1-.08h-3.66a4.4,4.4,0,0,0-2.19.68Zm57.67-1.08c0,.59.15,1.2,2.31,1.2h3.4a2.89,2.89,0,0,0,1.25-.26c-.17-.9-1.75-1.1-3.08-1.1h-2.23A5.48,5.48,0,0,0,360.66,165.27Zm-29.07.68a8.4,8.4,0,0,0,1.83.13h4.84c1,0,1-.16,1-.75a.79.79,0,0,0-.06-.39c0-.05-.36-.22-1.2-.22h-4.19a4.74,4.74,0,0,0-2.31.45A2.52,2.52,0,0,0,331.59,166Z" transform="translate(-3.52 -5.3)"/><path class="cls-2" d="M350.29,148.34c8.76,0,31.9.39,37,8.23,3,4.58,3.53,10.07,3.53,15.43,0,7.06-9.15,7.45-14.38,7.45s-10.2-.65-15.43-.65c-.92,0-5.49.26-5.49,1.57,0,1.86,7.55,2,10.32,2h.79c5.1,0,10.2-.26,15.3-.26,5.75,0,13.73,1.05,13.73,8.5,0,1.57-.13,3.27-1.44,4.31-1.7,1.44-12.55,1.7-15.17,1.7-5,0-9.94-.26-14.9-.26-.36,0-1.35,0-2.6,0-3.33,0-8.52.21-8.52,1.73,0,1.25,3.23,1.51,5.37,1.51.78,0,1.41,0,1.69-.07h15.74c9.41,0,11.2,6,11.2,14.25,0,27.72-4.71,28-31,28H321c-12.29,0-12.42-5.49-12.42-15.95v-12c0-13.07.39-13.47,13.33-14a12,12,0,0,0,3-.39c.65-.13,2-.26,2.35-.92,0-2.09-8.89-2.09-10.33-2.09-10.33,0-20.79.39-31.12.39-3.92,0-10.46-.52-10.46-5.75,0-2,0-4.71,1.7-6,3.21-2.46,19.58-2.8,30.3-2.8,4.13,0,7.42,0,8.8,0h2.16c3.95,0,7.81-.09,11.57-1.31.26-.13,1-.26,1-.65,0-1.31-3.79-1.57-4.7-1.57-13.34,0-26.68.78-40,.78-5.89,0-6.15-3.13-6.15-8.1,0-4.32.79-12.95,3.92-16.22,6.41-6.4,28.38-6.79,37.27-6.79h29m-16.87,19.74h4.84c1.83,0,3-.79,3-2.75s-1.57-2.61-3.26-2.61h-4.19c-1.57,0-4.31.39-4.31,2.35,0,2.88,1.43,3,3.92,3m29.55.39h3.4c1.31,0,3.27-.52,3.27-2.09,0-2.75-2.88-3.27-5.1-3.27h-2.23c-1.56,0-3.66.13-3.66,2.09,0,2.62,2.1,3.27,4.32,3.27m-56.9.14c2.58,0,5.77-.26,5.77-3.28,0-1.83-1.43-2.09-3-2.09h-3.66c-1.31,0-4.19.79-4.19,2.48v.79c0,1.7,2.09,2.09,3.53,2.09h1.55M344.6,211.8c2.07,0,3.77-.05,4.38-.05h1.67c3.61,0,11-.18,11-2.23l-.65-.92c-3.66-.13-7.19-.26-10.86-.26h-5.49l-4.4,0c-3.64,0-6.84.2-6.84,1.6,0,1.63,6.52,1.88,11.18,1.88m-2,10.71c1.54,0,3.09,0,4.66,0,2.22,0,4.44.13,6.8.13,2.09,0,6-.39,7.58-2,0-1.47-1.67-1.57-2.88-1.57H338.26c-.92,0-4.84.39-4.84,1.57,0,.92,1.57,1.18,2.22,1.31a35.15,35.15,0,0,0,7,.56m2.77,10.82c5.38,0,16.4-.17,16.4-2.1,0-1.47-2.06-1.57-3.38-1.57h-20c-.92,0-5.36.27-5.36,1.44,0,2,8.36,2.22,9.8,2.22h2.56m-52.64-31.12c9.81,0,10.73,7.58,10.73,15.55,0,2.1-.27,4.32-.27,6.41,0,3.27,0,6.8,1.05,9.94,3.4,9.67,15.95,11,24.71,11,11.38,0,22.62,0,33.87-.39,7.71-.26,15.56-.39,23.27-.39,2.49,0,6.93,1.17,6.93,4.31a7.94,7.94,0,0,1-2.09,6c-4.88,5.63-32.66,5.75-42.24,5.75h-1.17c-8.76,0-17.65-.39-26.41-.39-5.76,0-11,1.44-16.48,2.61a26.3,26.3,0,0,1-5.23.41h-2.61c-3.79,0-7.59-.14-10.72-2.62-6.15-5-6.67-35.43-6.67-43.67,0-11.64,1.17-14.51,13.33-14.51m57.54-57.87h-29c-21.62,0-34.73,2.6-40.09,8l0,0,0,0c-4.8,5-5,16.69-5,19,0,2.46,0,6.16,2,8.83a10,10,0,0,0-3.45,1.59c-3.27,2.51-3.27,6.69-3.27,9.19,0,3.12,1.38,8,9.67,9.4a9.72,9.72,0,0,0-2.58,2.18c-2.81,3.37-3,8.2-3,14.18,0,3,.07,13.42,1.05,23.45,1.64,16.91,4.65,21.35,7.1,23.33C288,267,293.3,267,296.81,267h2.61a29.88,29.88,0,0,0,6-.49h.05l2.83-.62a58.11,58.11,0,0,1,12.81-1.9c4.33,0,8.8.1,13.11.19s8.88.2,13.3.2h1.17c34.44,0,42.2-3.61,45.26-7.13a11.89,11.89,0,0,0,3.07-8.64c0-5.4-5.63-8.31-10.93-8.31h-1.18c5.09-4.92,6.1-13.3,6.1-26.6,0-3,0-9.12-3.42-13.43,4.64-.39,7.69-1.15,9.11-2.27h0c2.94-2.35,2.94-5.92,2.94-7.44,0-3.44-1.25-8.58-8.05-11.06a10,10,0,0,0,3.21-7.51c0-5.56-.5-12-4.19-17.62-4.39-6.75-17.59-10-40.34-10Zm11.7,20Zm-60.61,36.15h.08l5.1-.1a10.9,10.9,0,0,0-1.54,4.14,11.75,11.75,0,0,0-3.64-4Z" transform="translate(-3.52 -5.3)"/><path class="cls-1" d="M454.92,259.3c-16.48,0-44.37-5.57-44.37-26.47,0-17,21.07-17,31.19-17h4.39c1.42,0,2.87,0,4.33,0s2.85.05,4.25.05c1,0,1.2-.15,1.45-.34l.09-.08a1.13,1.13,0,0,0-.1-.72c-.11-.15-.62-.39-1.81-.39a18.61,18.61,0,0,0-2.72.26,10,10,0,0,1-1.41.15c-4.85,0-9.79.08-14.56.16s-9.74.15-14.62.15c-1,0-2.06,0-3.09.06s-2.13.05-3.19.05c-6.58,0-10.05-3.51-10.05-10.16,0-6,6.75-8.11,13.09-8.83-6.38-.91-7.13-5.28-7.13-7.28v-.53a13.09,13.09,0,0,1,1.07-6.37c2.51-5.1,12.23-5.35,21.62-5.58,4-.11,10-.26,11.23-1.13a3.63,3.63,0,0,0,.22-1.9c0-.37,0-.77,0-1.23,0-5.55,8.5-5.55,11.7-5.55h.44c.91,0,1.8,0,2.68,0s1.68.05,2.55.05c4,0,4.83,3.27,5.32,5.22a9.28,9.28,0,0,0,.81,2.37c.13.23,1,1.3,6.53,1.3,1.27,0,2.58,0,3.84-.1s2.66-.1,4-.1c5.89,0,8.85,2.36,10.3,4.34,2.05,2.8,2.45,6.64,1.13,10.81a5.76,5.76,0,0,1-3.84,4,7.91,7.91,0,0,1,4.64,2.16c2.49,2.52,2.46,6.41,2.44,10.18v1.23c0,4.35-5.73,4.85-10.79,5.28a29.49,29.49,0,0,0-5.77.85c.3.57.87,1.43,1.31,2.11,1.58,2.38,3.54,5.35,3.54,8.18v.41l-.17.38c-3.14,7.25-15.87,11-21.81,11a43.34,43.34,0,0,1-6.29-.84,70.92,70.92,0,0,0-11.55-1.38l-1.11,0c-.44,0-.95,0-1.52,0-2.15,0-7.87,0-7.87,1.86,0,0,1.33,2.91,17.77,2.91,3.78,0,7.62-.34,11.33-.67s7.73-.69,11.68-.69c7.13,0,7.13,6.93,7.13,10.27a15.22,15.22,0,0,1-.38,4.08C481.06,258.37,464.58,259.3,454.92,259.3Zm-21.09-63.21h2.57c3.4,0,5.9-.12,7.72-.28C440.68,195.84,437.21,196,433.83,196.09Zm38.82-1.91c.84.36,2.64.77,6.53.77,1.46,0,2.95-.11,4.39-.21l.51,0c-.95-.08-1.84-.15-2.7-.15a33.31,33.31,0,0,1-3.56-.27,35.14,35.14,0,0,0-3.55-.26A7.7,7.7,0,0,0,472.65,194.18Z" transform="translate(-3.52 -5.3)"/><path class="cls-2" d="M456.46,168.71h.44c1.78,0,3.46.1,5.23.1,3.66,0,2.83,3.87,4.4,6.59,1.25,2.2,6,2.3,8.26,2.3,2.61,0,5.23-.2,7.84-.2,8.9,0,11.62,6,9.52,12.55a3.65,3.65,0,0,1-3.78,2.88c-.52,0-1-.06-1.24-.06-1.88,0-3.87-.31-5.75-.31-2.05,0-4.8-.53-7.11-.53-2,0-3.75.42-4.29,2,.52,2.93,6.9,2.93,9.2,2.93,3,0,6-.42,8.89-.42,7.85,0,7.22,5.76,7.22,11.72,0,4.81-16.73,1.88-16.73,5.85,0,1.78,5,6.8,5,10.57-2.72,6.28-14.65,9.83-20,9.83-3.15,0-11.31-2.22-17.84-2.22l-1.2,0c-3.14.11-11.3-.52-11.3,3.88,0,4.81,15.48,4.91,19.77,4.91,7.74,0,15.27-1.36,23-1.36,4.92,0,5.13,4.39,5.13,8.27a13.39,13.39,0,0,1-.31,3.55c-1.47,5.34-21.34,5.75-25.94,5.75-15.07,0-42.37-4.81-42.37-24.47,0-14.16,17.18-15,29.19-15h4.39c2.82,0,5.75.1,8.58.1,2.51,0,2.51-.94,3.34-1.15.91-3.62-1.35-4.38-3.71-4.38-1.73,0-3.51.41-4.13.41-9.73,0-19.46.31-29.18.31-2.1,0-4.19.11-6.28.11-5.54,0-8.05-2.62-8.05-8.16,0-7.22,14.54-7.22,19.76-7.22,2.83,0,5.76.21,8.58.21h1.36c4,0,14.12-.15,14.12-2.4,0-1.8-3.17-1.89-4.78-1.89h-.45c-8.37,0-16.63.63-25,.63-3.66,0-7.63-1.05-7.63-5.44,0-2-.11-4.18.84-6,3.55-7.22,30.85-2.41,32.84-6.7.73-1.56.42-2.4.42-4.08,0-3.46,6.92-3.55,9.7-3.55m0-4a32.14,32.14,0,0,0-6.75.57c-6.28,1.38-6.95,5.34-6.95,7,0,.53,0,1,0,1.33,0,.12,0,.22,0,.3a69.84,69.84,0,0,1-9.52.63c-10,.25-20.25.5-23.37,6.7a14.92,14.92,0,0,0-1.27,7.26V189a8.84,8.84,0,0,0,2.68,6.51c-7.45,2.34-8.64,6.92-8.64,9.6,0,7.84,4.28,12.16,12.05,12.16,1.1,0,2.18,0,3.24-.06l1,0c-8.53,3.84-10.41,10.51-10.41,15.64,0,10.29,6.22,18.35,18,23.3,11.11,4.67,23.55,5.17,28.38,5.17a119.15,119.15,0,0,0,14.68-.91c9.32-1.25,14-3.65,15.11-7.78a16.75,16.75,0,0,0,.46-4.61,18.3,18.3,0,0,0-1-7.14,8.25,8.25,0,0,0-8.1-5.13h-.21c4.84-2,9.5-5,11.42-9.47l.33-.76v-.83c0-3.26-1.93-6.35-3.6-8.88.91-.11,1.89-.19,2.69-.26a41.76,41.76,0,0,0,6.83-1c5-1.37,5.79-4.54,5.79-6.31,0-.41,0-.81,0-1.21,0-4,.06-8.5-3-11.61a9.44,9.44,0,0,0-1.76-1.37,9,9,0,0,0,1.44-2.78c1.53-4.82,1-9.29-1.42-12.62-1.72-2.36-5.18-5.16-11.91-5.16-1.38,0-2.75.05-4.08.1s-2.53.1-3.76.1c-3.25,0-4.5-.37-4.93-.56a11.47,11.47,0,0,1-.47-1.6c-.5-2-1.68-6.73-7.26-6.73-.83,0-1.63,0-2.49-.05s-1.79,0-2.74,0h-.44Zm-15.23,71.64c.79,0,1.49,0,1.91,0,.59,0,1.12,0,1.55,0h.06l1,0a52,52,0,0,1,8,.81H453a74.8,74.8,0,0,1-11.8-.74Z" transform="translate(-3.52 -5.3)"/><path class="cls-1" d="M573.44,265.53c-3.17,0-11.54-5.11-11.54-9.19,0-2.08,1.51-4.36,4.24-7.15-7.14,5.4-13.55,9.28-17.8,9.28-4.67,0-11.81-5.56-11.81-10.37a5.12,5.12,0,0,1,.94-2.84c-8,3-18.12,5.89-22.74,5.89-7.32,0-10.37-10.93-10.37-16.78,0-4.74,3.18-5.23,4.88-5.5,1.5-.23,2.41-.37,3.12-2.07s.6-4.82.54-7.11c0-.65,0-1.26,0-1.79,0-.94,0-1.88.07-2.82s.06-1.78.06-2.68v-.48c0-7.41-.86-9.86-1.61-10.61-.11-.11-.15-.11-.19-.11a6.38,6.38,0,0,0-.85.1,8.21,8.21,0,0,1-1.5.16,4.62,4.62,0,0,1-3.38-1.39c-2.2-2.26-2.1-6.47-2-9.26,0-.34,0-.64,0-.9v-.26c0-2.86,0-9.58,5-10.34a27.15,27.15,0,0,1,3.45-.16,1,1,0,0,0,.66-.42c1.78-2.28,1.81-6.3,1.84-10.55,0-6.48.08-13.83,6.45-18.11,2.61-1.81,5.89-2.06,9.05-2.06h1.62l1.43,0c4,0,8.67,2.38,8.67,13.76,0,2.38-.21,4.75-.4,7s-.39,4.49-.39,6.69c0,2.41.32,3,3.49,3,1.56,0,2.32-2.3,2.32-7,0-.83,0-1.65-.07-2.47s-.06-1.76-.06-2.63c0-19.39,11.28-19.39,24.36-19.39,2.08,0,4.19,0,6.31-.07s4.27-.06,6.37-.06a160.22,160.22,0,0,1,17.74.8,78.4,78.4,0,0,1,9.94,1.74c15.24,3.93,15.24,21.66,15.24,30.19a40,40,0,0,1-.42,7c-1.07,6.42-7,8.73-12.77,9.56,7.94.08,20.25,1.36,20.25,8.53,0,5.85-3.62,9.18-10.77,9.94,4.1.48,7.77,2.29,7.77,9.15,0,7.94-1,34.24-14.2,39.51-5.06,1.95-10.35,2.12-15.34,2.12H597.5c-3.49,0-9.32,0-9.32-7a14.56,14.56,0,0,0-.21-2.19c-.9.67-2.12,1.67-3.09,2.48C580.05,262.71,576.41,265.53,573.44,265.53Zm26.46-21.61a6.34,6.34,0,0,0,1.52.22c1.67,0,2.58-1.82,2.69-5.4A45.78,45.78,0,0,0,599.9,243.92Zm-42.11-11.34a10.73,10.73,0,0,0-4,.54,6.3,6.3,0,0,0-2.61,2.95l-.18.32A67.13,67.13,0,0,0,557.79,232.58Zm-17.91-21.93c0,.32,0,.74,0,1.22.11,5.75.85,6.83,1.19,7,1.22-.29,5-2.5,7.37-4.21l-1.31,0h-.79c-3.11,0-4.22-3.76-4.22-7a14.43,14.43,0,0,1,.15-1.94,12.58,12.58,0,0,0,.11-1.46c0-3.23-.67-3.23-1.27-3.23-.21,0-1.39,1.29-1.39,7,0,.42,0,.85.06,1.26S539.87,210.24,539.88,210.65Zm45.21,4.27c1.34,0,2.75.06,4.17.06,4.81,0,9.72-.13,14.46-.26l.74,0-3.9,0c-4.06,0-8.14.07-12.21.07C587.48,214.8,586.34,214.84,585.09,214.92Zm-21-18.42c5,.31,9.88.31,12.26.31,4.52,0,9.1-.1,13.62-.21l-10.3,0Zm12.63-14.86a63.21,63.21,0,0,0,9.69.65c3,0,7.21,0,10.41-.32a40,40,0,0,0-8.79-.68l-2.33,0h-1.81A64.3,64.3,0,0,0,576.69,181.64Zm-1.85-13.92a53.21,53.21,0,0,0,11.15.84,83.38,83.38,0,0,0,10-.41,43.76,43.76,0,0,0-10-.82c-1,0-2,0-3,.07s-2.06.06-3.13.06h-1.17A23,23,0,0,0,574.84,167.72Z" transform="translate(-3.52 -5.3)"/><path class="cls-2" d="M583.51,148.86a158,158,0,0,1,17.52.78,81.22,81.22,0,0,1,9.68,1.7c12.68,3.27,13.72,17.39,13.72,28.25a38.18,38.18,0,0,1-.39,6.66c-1.35,8.14-12.82,8.37-19.61,8.37h-1.18c-15.69,0-31.51-.13-47.2-.13-1.18,0-5.23.13-5.23,2,6.15,2.23,18.7,2.36,25.5,2.36,12,0,24.06-.66,36.08-.66,4.32,0,19.09.39,19.09,6.54,0,6.93-6.4,8.11-12.16,8.11-2.22,0-4.44-.13-6.79-.13-8,0-16.09.13-24.19.13-1.83,0-14.39.52-14.39,2.74,1.31,1.31,12.95,1.44,15.3,1.44,9.68,0,19.35-.52,29-.52,5.88,0,10.2.13,10.2,7.32,0,10.33-1.83,33.21-13,37.66-4.66,1.8-9.66,2-14.59,2H597.5c-3.92,0-7.32-.13-7.32-5,0-.92-.26-4.84-1.44-4.84-2,0-11.12,9.94-15.3,9.94-2.35,0-9.54-4.58-9.54-7.19,0-5.89,22.88-19.88,23.66-25.11l-.91-.78c-1.57.39-7.59,5.62-9.16,6.93-5.75,4.84-22.09,19.09-29.15,19.09-3.53,0-9.81-4.71-9.81-8.37,0-5.88,22.49-12.29,22.49-16.48,0-1-2-1-2.75-1-1.57,0-4,0-5.49.78-3.66,2-3,5.23-6.93,7.85-5.23,3.53-24.84,9.94-31.12,9.94-5.88,0-8.37-10.2-8.37-14.78,0-5.88,5.5-1.18,7.85-6.8,1-2.61.65-7.06.65-9.67,0-1.84.13-3.67.13-5.5,0-2.74.27-13.2-3.79-13.2-.78,0-1.57.26-2.35.26-4.06,0-3.4-7.06-3.4-9.55s-.13-8.1,3.27-8.63a26.35,26.35,0,0,1,3.14-.13,2.91,2.91,0,0,0,2.22-1.17c5.23-6.67-1.7-21.84,7.84-28.25,2.19-1.52,5.14-1.72,7.94-1.72,1,0,2.08,0,3,0,6,0,6.67,7.19,6.67,11.76s-.79,9.16-.79,13.73c0,3.92,1.7,5,5.49,5,4.19,0,4.32-6,4.32-9,0-1.7-.13-3.4-.13-5.1,0-16.74,8.1-17.39,22.36-17.39,4.18,0,8.49-.13,12.68-.13m-3.66,16.6h-1.17c-2.48,0-7.2.18-7.2,2.36,0,2.74,12.42,2.74,14.51,2.74a71.49,71.49,0,0,0,11.77-.65c1-.13,1.7-.52,1.7-1.7,0-2.88-11.38-2.88-13.47-2.88s-4,.13-6.14.13m4.83,13.86h-.82c-3.09,0-12,.11-12,2.1,0,2.74,12.42,2.87,14.51,2.87a94,94,0,0,0,12.16-.52,1.62,1.62,0,0,0,1.57-1.7c0-2.48-7.42-2.78-12.11-2.78-1.5,0-2.71,0-3.32,0M541.14,220.9c1.7,0,11-5.62,11-7.19,0-1-3.33-1.05-5-1.05h-.79c-1.83,0-2.22-3.67-2.22-5s.26-2.23.26-3.4c0-2.36-.26-5.23-3.27-5.23-3.26,0-3.39,6.8-3.39,9,0,.91.13,1.83.13,2.61.13,2.36-.27,10.2,3.26,10.2m60.28,25.24c4.19,0,4.71-5.1,4.71-8.24v-3l-.26-.52c-1.83,1.18-8.63,8.63-8.63,10.72l.13.26a19.63,19.63,0,0,0,4,.79M583.51,144.86c-2.12,0-4.3,0-6.4.06s-4.22.07-6.28.07c-13,0-26.36,0-26.36,21.39,0,.93,0,1.83.07,2.7s.06,1.63.06,2.4c0,3.26-.37,4.54-.6,5a7,7,0,0,1-1.15-.1,5.34,5.34,0,0,1-.06-.87c0-2.12.18-4.26.38-6.52s.41-4.75.41-7.21c0-13.72-6.69-15.76-10.67-15.76l-1.4,0h-1.65c-3.31,0-7.1.28-10.19,2.42-7.22,4.87-7.27,13.11-7.31,19.74,0,3.5-.05,7.1-1.19,9a25.79,25.79,0,0,0-2.89.15h-.17c-6.68,1-6.67,9.24-6.66,12.32v.26c0,.24,0,.53,0,.85-.06,2.94-.18,7.85,2.61,10.7a6.57,6.57,0,0,0,4.81,2,9.19,9.19,0,0,0,1.38-.11c.35,1,.79,3.36.77,8.56v.49c0,.85,0,1.7-.06,2.61s-.07,1.9-.07,2.89c0,.55,0,1.17,0,1.85.05,2,.13,5-.4,6.31-.26.63-.28.64-1.57.84-1.62.25-6.57,1-6.57,7.47,0,5.88,3.12,18.78,12.37,18.78,4.18,0,12.4-2.14,19.81-4.7.3,6.24,8.7,12,13.8,12,3.09,0,7-1.63,11.57-4.5,0,.12,0,.25,0,.37,0,2.6,1.88,5.24,5.58,7.85,1.43,1,5.07,3.34,8,3.34,3.64,0,7.56-3,12.71-7.27l.13-.11c1,7.25,8.06,7.25,11.22,7.25H601c5.18,0,10.68-.18,16-2.24,14.39-5.76,15.51-33.14,15.51-41.39,0-4.45-1.38-7.15-3.36-8.79a10.76,10.76,0,0,0,6.36-10.3c0-5.08-4.33-8.4-12.65-9.79a11.54,11.54,0,0,0,5.15-8,41.9,41.9,0,0,0,.44-7.32c0-8.32,0-27.81-16.73-32.12a81.67,81.67,0,0,0-10.19-1.8,163.28,163.28,0,0,0-18-.81ZM542.2,216.22c-.09-.56-.15-1.2-.19-1.83a6.13,6.13,0,0,0,1.24,1.25c-.37.21-.72.41-1,.58Z" transform="translate(-3.52 -5.3)"/><path class="cls-1" d="M589.87,31a9.4,9.4,0,0,1-1.45-18.68,10.36,10.36,0,0,1,1.46-.11,9.4,9.4,0,0,1,1.45,18.68,10.25,10.25,0,0,1-1.46.11Z" transform="translate(-3.52 -5.3)"/><path class="cls-2" d="M589.89,14.19A7.39,7.39,0,0,1,591,28.89a7.52,7.52,0,0,1-1.15.09,7.39,7.39,0,0,1-1.14-14.7,7.55,7.55,0,0,1,1.16-.09m0-4a11.76,11.76,0,0,0-1.78.14A11.39,11.39,0,0,0,589.87,33a11.71,11.71,0,0,0,1.77-.13,11.4,11.4,0,0,0-1.75-22.66Z" transform="translate(-3.52 -5.3)"/><path class="cls-1" d="M572,42.54a9.4,9.4,0,1,1,6.88-3,9.38,9.38,0,0,1-6.88,3Z" transform="translate(-3.52 -5.3)"/><path class="cls-2" d="M572,25.75a7.39,7.39,0,0,1,5.41,12.43h0a7.39,7.39,0,0,1-10.83-10.07h0A7.36,7.36,0,0,1,572,25.75m0-4a11.43,11.43,0,0,0-8.35,3.63l-.85.92,0,.14A11.4,11.4,0,0,0,572,44.54h.14l-1.23,6.51L580.3,40.9A11.38,11.38,0,0,0,572,21.75Z" transform="translate(-3.52 -5.3)"/><path class="cls-1" d="M611.49,34.8A9.49,9.49,0,0,1,607,33.63a9.4,9.4,0,1,1,4.54,1.17Z" transform="translate(-3.52 -5.3)"/><path class="cls-2" d="M611.51,18a7.4,7.4,0,0,1,0,14.8,7.31,7.31,0,0,1-3.56-.93A7.4,7.4,0,0,1,611.51,18m0-4a11.39,11.39,0,1,0,5.5,1.42,11.4,11.4,0,0,0-5.5-1.42Z" transform="translate(-3.52 -5.3)"/><path class="cls-1" d="M605.57,72.64a30.77,30.77,0,0,1-9.1-1.89,33.25,33.25,0,0,0-3.92-1.1,34,34,0,0,0-4.06-.31c-6.16-.25-15.46-.62-17-11.44-.73-5.22,1.41-11.16,5.87-16.28,5.28-6.08,12.6-9.86,19.1-9.86a16,16,0,0,1,2.71.23c6.26,1.11,12.44,6.48,16.12,14,3.46,7.09,3.84,14.49,1,19.8-2.4,4.53-6,6.83-10.75,6.83Z" transform="translate(-3.52 -5.3)"/><path class="cls-2" d="M596.48,33.76a14.18,14.18,0,0,1,2.36.2c11.51,2,21.41,20.21,15.73,30.91-2.36,4.43-5.6,5.77-9,5.77-4.51,0-9.31-2.36-12.67-3-5.9-1-17.79,1.52-19.41-10.05-1.56-11.19,11.84-23.87,23-23.87m0-4c-7.06,0-15,4-20.61,10.54-4.84,5.57-7.15,12.08-6.34,17.88,1.75,12.47,12.89,12.92,18.88,13.16a32.75,32.75,0,0,1,3.79.28,32.13,32.13,0,0,1,3.66,1,32.16,32.16,0,0,0,9.71,2c5.46,0,9.79-2.73,12.53-7.9,3.12-5.87,2.75-13.95-1-21.61-4-8.1-10.69-13.89-17.57-15.1a17.16,17.16,0,0,0-3.06-.27Z" transform="translate(-3.52 -5.3)"/><path class="cls-1" d="M624.39,51.78A9.39,9.39,0,1,1,628,51a9.38,9.38,0,0,1-3.65.74Z" transform="translate(-3.52 -5.3)"/><path class="cls-2" d="M624.38,35a7.38,7.38,0,0,1,6.82,4.52h0a7.4,7.4,0,0,1-13.63,5.76h0A7.4,7.4,0,0,1,624.38,35m0-4a11.4,11.4,0,0,0-10.49,15.83l5.24,12.4L620.24,53a11.54,11.54,0,0,0,4.15.77A11.39,11.39,0,0,0,635.33,39.2l0-.14L634.88,38a11.37,11.37,0,0,0-10.5-7Z" transform="translate(-3.52 -5.3)"/><path class="cls-1" d="M567.42,98.79a7.18,7.18,0,1,1,3.47-.89,7.25,7.25,0,0,1-3.47.89Z" transform="translate(-3.52 -5.3)"/><path class="cls-2" d="M567.41,86.42a5.19,5.19,0,0,1,2.51,9.73,5.19,5.19,0,0,1-7-2,5.19,5.19,0,0,1,4.53-7.69m0-4a9.18,9.18,0,1,0,8.05,4.75,9.17,9.17,0,0,0-8.05-4.75Z" transform="translate(-3.52 -5.3)"/><path class="cls-1" d="M558.38,110.7a7.07,7.07,0,0,1-2.79-.57,7.18,7.18,0,0,1,2.8-13.8,7.07,7.07,0,0,1,2.79.57,7.18,7.18,0,0,1-2.8,13.8Z" transform="translate(-3.52 -5.3)"/><path class="cls-2" d="M558.39,98.33a5.13,5.13,0,0,1,2,.41,5.18,5.18,0,0,1,2.76,6.79h0a5.19,5.19,0,0,1-4.78,3.17,5.19,5.19,0,0,1-4.77-7.2h0a5.19,5.19,0,0,1,4.78-3.17m0-4A9.18,9.18,0,0,0,554.81,112a9,9,0,0,0,3.57.73,9.16,9.16,0,0,0,8.46-5.61,9.18,9.18,0,0,0-4.88-12,9,9,0,0,0-3.57-.73Z" transform="translate(-3.52 -5.3)"/><path class="cls-1" d="M582.58,96.12a7,7,0,0,1-1.12-.09,7.18,7.18,0,0,1,1.11-14.28,7,7,0,0,1,1.12.09,7.18,7.18,0,0,1-1.11,14.28Z" transform="translate(-3.52 -5.3)"/><path class="cls-2" d="M582.57,83.75a5.73,5.73,0,0,1,.81.06,5.19,5.19,0,0,1-.8,10.31,5.52,5.52,0,0,1-.81-.06,5.19,5.19,0,0,1,.8-10.31m0-4A9.19,9.19,0,0,0,581.15,98a9.84,9.84,0,0,0,1.43.11A9.19,9.19,0,0,0,584,79.86a10,10,0,0,0-1.43-.11Z" transform="translate(-3.52 -5.3)"/><path class="cls-1" d="M571.57,125.32c-3.56,0-6.27-1.72-8.07-5.11-2.07-3.89-1.8-9.28.71-14.42,2.66-5.45,7.16-9.34,11.73-10.15a12,12,0,0,1,2-.17c4.73,0,10,2.73,13.85,7.11,3.23,3.73,4.78,8.06,4.25,11.89-1.13,8.08-8.23,8.36-12.47,8.54a22.44,22.44,0,0,0-2.77.21,23.18,23.18,0,0,0-2.67.75,22,22,0,0,1-6.56,1.35Z" transform="translate(-3.52 -5.3)"/><path class="cls-2" d="M577.94,97.47c7.82,0,17.21,8.89,16.12,16.73-1.14,8.11-9.47,6.32-13.6,7-2.36.41-5.72,2.07-8.89,2.07-2.38,0-4.65-.94-6.3-4-4-7.49,3-20.24,11-21.66a10,10,0,0,1,1.65-.14m0-4a14.06,14.06,0,0,0-2.35.2c-5.19.92-10.24,5.23-13.18,11.24-2.79,5.72-3,11.79-.68,16.24,2.15,4,5.55,6.17,9.84,6.17a23.62,23.62,0,0,0,7.17-1.45,20.09,20.09,0,0,1,2.41-.68,21,21,0,0,1,2.5-.19c4.22-.17,13-.52,14.37-10.25.62-4.47-1-9.26-4.73-13.48-4.18-4.81-10.06-7.8-15.35-7.8Z" transform="translate(-3.52 -5.3)"/><path class="cls-1" d="M595.13,104.22A7.19,7.19,0,1,1,600,102.3a7.15,7.15,0,0,1-4.89,1.92Z" transform="translate(-3.52 -5.3)"/><path class="cls-2" d="M595.13,91.85a5.17,5.17,0,0,1,3.8,1.66h0a5.18,5.18,0,1,1-7.59,7h0a5.18,5.18,0,0,1,3.79-8.72m0-4a9.18,9.18,0,1,0,6.73,2.93,9.15,9.15,0,0,0-6.73-2.93Z" transform="translate(-3.52 -5.3)"/></svg>