<svg id="レイヤー_1" data-name="レイヤー 1" xmlns="http://www.w3.org/2000/svg" viewBox="0 0 1259.28 121.98"><defs><style>.cls-1{fill:#fffaf2;}</style></defs><path class="cls-1" d="M41.94,42.75c0,17,53.63,11,53.63,48,0,23.9-21.22,39.1-43.77,39.1-22.23,0-40.61-3-40.61-29.74,0-1.5.17-3,2-3,5.18,0,10.36,2.17,15.2,3.68,6,1.84,12.2,3.67,18.55,3.67,6.18,0,13.87-2.17,13.87-9.69,0-3.51-1-6-3.84-8-4.18-3-9.36-3.84-14.21-5.18C26.4,76.83,7.52,63.8,7.52,45.09,7.52,20.53,30.91,8.5,52.8,8.5c20.38,0,38.76.33,38.76,26.23,0,2.84-1.5,4.18-4.34,4.18-4.85,0-10-1.51-14.71-2.68-6-1.33-12.19-2.67-18.37-2.67C48.12,33.56,41.94,35.73,41.94,42.75Z" transform="translate(-7.52 -8.5)"/><path class="cls-1" d="M111.74,113.93c0-16.38,24.9-92.9,37.6-101.42,3.84-2.68,7.18-2.68,11.69-2.68,7,0,11,.84,15.71,6.52,10.19,12.53,33.75,82.71,33.75,99.08,0,11.53-14.2,11.53-22.39,11.53-19.88,0,5.35-21.72-29.41-21.72-28.57,0-4.51,21.55-28.07,21.55C119.93,126.79,111.74,127.46,111.74,113.93ZM163.2,81.18c3.35,0,5.85-2,5.85-5.51,0-3.85-4.34-28.91-8.35-28.91-3.34,0-8.36,25.4-8.36,29.07,0,4.51,3.51,5.35,7.35,5.35Z" transform="translate(-7.52 -8.5)"/><path class="cls-1" d="M329.73,76.67c0,9.69-.17,40.6-8.35,46.61-4.51,3.35-9.53,3.85-15,3.85a15.3,15.3,0,0,1-6.68-1.17c-9.7-4.51-27.41-52.8-33.76-52.8-3,0-3,12.2-3,14.54,0,8.85.67,17.71.67,26.56,0,8.19-3.51,12.53-11.87,12.53-3.84,0-10.69-.67-13.53-3.34-7.85-7.52-7.85-51.13-7.85-62.49,0-10.86.33-44.27,12.53-48.62C246.52,11,249.53,11,253.21,11c20.21,0,31.07,51.63,39.76,51.63,4.68,0,4.35-19.55,4.35-23.05,0-6-.51-11.87-.51-17.88,0-10,4.85-10.53,13.37-10.53,3.34,0,9,1,11.36,3.34,7.52,7.35,8.19,38.43,8.19,49.29Z" transform="translate(-7.52 -8.5)"/><path class="cls-1" d="M378.6,112.42c0-4,.33-7.85.33-11.69,0-29.91-32.24-62.83-32.24-82,0-7,16-7.69,20.88-7.69,3.18,0,7.18.34,9.52,2.68,5.18,5,14.71,37.09,18.88,37.09,6.19,0,12.87-29.57,17.21-34.92,3.51-4.51,8.53-4.68,13.87-4.68,5.68,0,17.71,0,17.71,8,0,15.87-28.4,52.13-31.41,75.19a85.44,85.44,0,0,0-.33,9.19c0,19.21.5,24.39-20.72,24.39C381.61,128,378.6,122.28,378.6,112.42Z" transform="translate(-7.52 -8.5)"/><path class="cls-1" d="M517.89,81.77c0-10.57-6.48-22-13-19.14-8.78,3.24-7,60.46-36.19,58.36-25.52-1.88-28-22.07-28-36,0-26,27.93-44.66,52-44.66,22.49,0,46.65,16.84,46.65,40.9,0,16.84-9.09,33.36-24,40.48a16.13,16.13,0,0,1-9.73,2c-4.28-.62-10-8.78-10-12.34,0-2.72,1.05-7.63,4.29-9.2C508.48,96.41,517.89,92.86,517.89,81.77ZM468.21,101c4.39,0,11.19-31.28,11.19-36.2,0-1.15.21-2.72-1.36-2.72-8.79,0-16,16.84-16,24.27C462,89.61,463.92,101,468.21,101Z" transform="translate(-7.52 -8.5)"/><path class="cls-1" d="M627.42,44.17c2.09,1.44,6.28,1.44,8.89,1.44,4.71,0,9.42-.53,14.25-.53,5.37,0,13.47.66,13.47,7.72a14.4,14.4,0,0,1-.39,3.4,4,4,0,0,1-2.22,2.61c-2.09,1.18-10.07,1.44-12.82,1.44-4.83,0-9.54-.26-14.38-.26-1.44,0-6.93,0-6.93,2.22l.92,1.44c1.57.92,11.24.79,13.59.79,6.28,0,12.43-.27,18.7-.27,7.19,0,14.25,1.31,14.25,10.07a4.71,4.71,0,0,1-1.17,3.14c-3.79,4.44-34.13,4.31-40.54,4.31-6.93,0-13.86-.26-20.79-.26-2.22,0-15,.39-15,3.27,2.35,1,16.21,1.31,19.48,1.31,10.59,0,21.18-.52,31.77-.39h3.93c4.44,0,15.16-.66,15.16,6.27A16.19,16.19,0,0,1,666.12,99c-1.83,3.53-13.59,2.62-17.25,2.62-3.14,0-13-.26-13,4.44,0,2.62,8.24,2.75,10.07,2.75,2.61,0,5.23,0,7.84-.13,2.88-.13,5.89-.52,8.76-.52,4.32,0,8.24-.14,8.24,5.36,0,3.13-.52,5.49-2.61,8-5.1,6.15-35.57,6.28-43.94,6.28-8.1,0-16.21-.13-24.19-.13-4.18,0-20.52.13-23-2.75-1.44-1.57-.91-3.14-2.87-4.18-2.88,2.35-5.76,5.62-9.42,6.54-3.4-2-11.9-11.25-11.9-15.3,0-5.36,18.44-19.22,18.44-26.28,0-5.76-7.45-4.45-11.25-4.45-6.4,0-8.76-2.74-8.76-9a19.5,19.5,0,0,1,.53-4.05c.78-4.06,19.48-3.93,23-3.93,5.62,0,11.24.4,16.87.4,3.13,0,6.93.26,9.54-1.7v-.14c0-2.74-7.32-2.61-9.15-2.61-6.15,0-12.29.52-18.44.52-4.44,0-11.64-1-11.64-6.8a14.21,14.21,0,0,1,.79-5.23c.65-1.83,2.62-2.35,4.31-2.61,10.07-1.44,20.14-1.18,30.21-1.18,1.44,0,3.66,0,3.66-2s-2.48-2.09-3.92-2.09c-10.86,0-21.58.39-32.43.39-4,0-8-.65-8-5.62,0-2.62.14-6,1.31-8.37.79-1.7,2.75-2.48,4.45-2.75,4.57-.78,9.28-.52,13.86-1.3,1.3-.27,2.87-.79,2.87-2.36s-1.3-2.35-1.3-4.05c0-2.75,13.86-5.36,16.21-5.36,7.45,0,5.49,7.71,12.55,10.59,2.49,1,5.23.91,7.85.91,12.81,0,10.06-11.76,14.9-11.76,3.4,0,18.83,1.57,18.83,6.27,0,1.44-.91,2.62-.91,4.06s2.74,2,3.92,2.22c8.5,1.57,17.78-2.75,17.78,10.85,0,5.76-2.61,6.67-7.84,6.67-8.24,0-16.35-.39-24.59-.39-1.3,0-9.8-.26-9.8,2Zm-16.34,61.06c0-3.14-7.32-3.14-9.29-3.14s-3.66-.13-5.36-.13c-3.53,0-10.59.13-10.59,5,0,.52.26.78.66,1.18,1.43,1.17,11.5,1.43,13.72,1.43s10.86-.26,10.86-3.4Z" transform="translate(-7.52 -8.5)"/><path class="cls-1" d="M737.47,114.64a19.53,19.53,0,0,1,.26-2.74c.52-2.49,10.59-2.62,12.81-2.62,2.62,0,5.23.39,7.85.39,5.1,0,5.49-18.82,5.49-22.62,0-3.39,0-6.79-.26-10.19-.66-6.8-7.32-6-12.55-6-2.1,0-5,0-6.8,1-4.06,2.35-9,24.32-11,28.76a62.43,62.43,0,0,1-15.69,21.58c-3.27,3-7.06,6.93-11.76,6.93-4.06,0-15-10.07-15-14.25,0-3.27,24.32-15.7,24.32-40.67,0-3.53-5-3.4-7.45-3.4-6.15,0-7.2,4.32-10.46,4.32C693.67,75.16,684,66,684,62.47a7.13,7.13,0,0,1,.65-2.87c1.31-3,29.29-38.31,31.78-40,2.09-1.44,3.66-2.49,6.27-2.49,3.53,0,12.55,3.27,12.55,7.59,0,5.88-10.72,17.91-10.72,22.62,0,4.31,13.47,4.31,16.48,4.31,2.74,0,5.49-.13,8.24-.13S767,52.14,767,47.44c0-4.32-10.72-16.87-10.72-22.23,0-5.1,9-8.11,13.2-8.11,2.62,0,5.1,2.49,6.93,4.19,3,3,29.16,35.17,30.2,37.52a7.58,7.58,0,0,1,.79,3.4c0,3.79-9.41,13.47-13.21,13.47-2.74,0-2.22-2.62-4.05-2.62-.91,0-1.7.4-1.7,1.44a1.19,1.19,0,0,0-.13.66c0,.65.26,1.3.26,2.09V89.41a116.22,116.22,0,0,1-.65,11.63C786.76,112.29,784,122.75,773,128c-6,2.88-14.9,2.48-21.57,2.48-9.16,0-14-3.66-14-13.07Z" transform="translate(-7.52 -8.5)"/><path class="cls-1" d="M852.27,80.52c0-13.08.4-13.47,13.34-14a11.53,11.53,0,0,0,3-.4c.65-.13,2-.26,2.35-.91,0-2.09-8.89-2.09-10.33-2.09-10.33,0-20.79.39-31.12.39-3.92,0-10.46-.52-10.46-5.75,0-2,0-4.71,1.7-6,4.45-3.4,34.13-2.74,39.1-2.74,4.7,0,9.28.13,13.72-1.31.27-.13,1-.26,1-.66,0-1.3-3.79-1.56-4.71-1.56-13.33,0-26.67.78-40,.78-5.88,0-6.14-3.14-6.14-8.11,0-4.31.78-12.94,3.92-16.21,6.41-6.41,28.37-6.8,37.27-6.8h29c8.76,0,31.91.39,37,8.24,3,4.57,3.53,10.07,3.53,15.43,0,7.06-9.16,7.45-14.39,7.45s-10.2-.65-15.43-.65c-.91,0-5.49.26-5.49,1.57,0,2.09,9.55,2,11.12,2,5.1,0,10.2-.26,15.29-.26,5.76,0,13.73,1,13.73,8.49,0,1.57-.13,3.27-1.43,4.32-1.7,1.44-12.56,1.7-15.17,1.7-5,0-9.94-.26-14.91-.26-1.3,0-11.11-.4-11.11,1.7,0,1.7,6,1.57,7.06,1.44h15.43c9.67-.14,11.5,5.88,11.5,14.25,0,27.72-4.7,28-31,28h-35c-12.29,0-12.42-5.49-12.42-16ZM836.45,69c9.81,0,10.72,7.59,10.72,15.56,0,2.09-.26,4.31-.26,6.41,0,3.27,0,6.8,1.05,9.93,3.4,9.68,15.95,11,24.71,11,11.38,0,22.62,0,33.87-.4,7.71-.26,15.55-.39,23.27-.39,2.48,0,6.93,1.18,6.93,4.32a7.93,7.93,0,0,1-2.09,6c-5.1,5.89-35.18,5.76-43.41,5.76-8.76,0-17.66-.4-26.41-.4-5.76,0-11,1.44-16.48,2.62a39.75,39.75,0,0,1-7.85.39c-3.79,0-7.58-.13-10.72-2.61-6.14-5-6.67-35.44-6.67-43.68C823.11,71.89,824.29,69,836.45,69Zm8.24-35.69c0,1.7,2.09,2.09,3.53,2.09,2.61,0,7.32.39,7.32-3.27,0-1.83-1.44-2.09-3-2.09h-3.66c-1.3,0-4.18.78-4.18,2.48ZM882,34.88c1.83,0,3-.78,3-2.74s-1.57-2.62-3.27-2.62h-4.18c-1.57,0-4.32.4-4.32,2.36,0,2.87,1.44,3,3.93,3Zm.13,61.59c-.91,0-5.36.26-5.36,1.44,0,2,8.37,2.22,9.81,2.22,2.48,0,19,.26,19-2.09,0-1.7-2.75-1.57-3.92-1.57Zm22.62-21c-3.66-.13-7.19-.26-10.85-.26h-5.49c-5,0-11.24-.4-11.24,1.57,0,2.35,13.59,1.83,15.55,1.83s12.69.26,12.69-2.23ZM882,85.88c-.91,0-4.83.39-4.83,1.57,0,.91,1.56,1.17,2.22,1.3,3.92.79,7.71.53,11.64.53,2.22,0,4.44.13,6.79.13,2.1,0,6-.39,7.59-2,0-1.7-2.22-1.57-3.4-1.57Zm28.12-50.6c1.3,0,3.26-.53,3.26-2.09,0-2.75-2.87-3.27-5.1-3.27H906c-1.57,0-3.66.13-3.66,2.09,0,2.61,2.09,3.27,4.32,3.27Z" transform="translate(-7.52 -8.5)"/><path class="cls-1" d="M988.26,99.11c-3.14.1-11.3-.52-11.3,3.87,0,4.81,15.48,4.92,19.77,4.92,7.74,0,15.27-1.36,23-1.36,4.92,0,5.13,4.39,5.13,8.26a13,13,0,0,1-.32,3.56c-1.46,5.33-21.33,5.75-25.94,5.75-15.06,0-42.36-4.81-42.36-24.48,0-16,22-14.95,33.58-14.95,2.82,0,5.75.1,8.57.1,2.51,0,2.51-.94,3.35-1.15,1.57-6.28-6.38-4-7.84-4-9.73,0-19.46.31-29.19.31-2.09,0-4.18.1-6.27.1-5.55,0-8.06-2.61-8.06-8.15,0-7.22,14.54-7.22,19.77-7.22,2.83,0,5.76.21,8.58.21,1.78,0,15.48.21,15.48-2.41,0-2-3.87-1.88-5.23-1.88-8.37,0-16.63.63-25,.63-3.66,0-7.63-1-7.63-5.44,0-2-.11-4.19.83-6,3.56-7.22,30.86-2.41,32.85-6.7.73-1.57.41-2.41.41-4.08,0-3.66,7.75-3.55,10.15-3.55,1.78,0,3.45.1,5.23.1,3.66,0,2.82,3.87,4.39,6.59,1.26,2.2,6,2.3,8.27,2.3,2.61,0,5.23-.21,7.84-.21,8.89,0,11.61,6,9.52,12.55-1.15,3.56-4.08,2.83-5,2.83-1.88,0-3.87-.32-5.75-.32-3.87,0-10.25-1.88-11.4,1.47.52,2.93,6.9,2.93,9.2,2.93,3,0,6-.42,8.89-.42,7.85,0,7.22,5.75,7.22,11.71,0,4.81-16.74,1.89-16.74,5.86,0,1.78,5,6.8,5,10.56-2.72,6.28-14.64,9.84-20,9.84C1004,101.31,995,98.8,988.26,99.11Z" transform="translate(-7.52 -8.5)"/><path class="cls-1" d="M1130.34,97.25c-1.57.4-7.58,5.63-9.15,6.93-5.75,4.84-22.1,19.09-29.16,19.09-3.53,0-9.8-4.7-9.8-8.36,0-5.89,22.49-12.3,22.49-16.48,0-1.05-2-1.05-2.75-1.05-1.57,0-4,0-5.49.79-3.66,2-3,5.23-6.93,7.84-5.23,3.53-24.84,9.94-31.12,9.94-5.88,0-8.37-10.2-8.37-14.77,0-5.89,5.49-1.18,7.85-6.8,1-2.62.65-7.06.65-9.68,0-1.83.13-3.66.13-5.49,0-2.75.26-13.21-3.79-13.21-.78,0-1.57.27-2.35.27-4.06,0-3.4-7.07-3.4-9.55s-.13-8.11,3.27-8.63a26.27,26.27,0,0,1,3.13-.13,2.91,2.91,0,0,0,2.23-1.18c5.23-6.67-1.7-21.83,7.84-28.24,3-2.09,7.45-1.7,11-1.7,6,0,6.67,7.19,6.67,11.77s-.78,9.15-.78,13.73c0,3.92,1.7,5,5.49,5,4.18,0,4.31-6,4.31-9,0-1.7-.13-3.4-.13-5.09,0-16.74,8.11-17.4,22.36-17.4,4.19,0,8.5-.13,12.69-.13a155.73,155.73,0,0,1,17.52.79,77.23,77.23,0,0,1,9.67,1.7c12.68,3.27,13.73,17.39,13.73,28.24a38.29,38.29,0,0,1-.39,6.67c-1.44,8.63-14.25,8.37-20.79,8.37-15.69,0-31.51-.13-47.2-.13-1.18,0-5.23.13-5.23,2,6.14,2.22,18.69,2.35,25.49,2.35,12,0,24.06-.65,36.09-.65,4.32,0,19.09.39,19.09,6.54,0,6.93-6.4,8.1-12.16,8.1-2.22,0-4.44-.13-6.8-.13-8,0-16.08.13-24.19.13-1.83,0-14.38.53-14.38,2.75,1.31,1.31,12.95,1.44,15.3,1.44,9.67,0,19.35-.53,29-.53,5.88,0,10.19.13,10.19,7.32,0,10.33-1.83,33.22-12.94,37.66-5.75,2.22-12,2-18,2-3.93,0-7.33-.13-7.33-5,0-.91-.26-4.83-1.43-4.83-2,0-11.12,9.93-15.3,9.93-2.36,0-9.55-4.57-9.55-7.19,0-5.88,22.88-19.87,23.67-25.1Zm-48.9-22.36c0,.92.13,1.84.13,2.62.13,2.35-.26,10.2,3.27,10.2,1.7,0,11-5.62,11-7.19,0-1.18-5-1-5.76-1-1.83,0-2.22-3.66-2.22-5s.26-2.22.26-3.4c0-2.35-.26-5.23-3.27-5.23C1081.57,65.87,1081.44,72.67,1081.44,74.89Zm48.25-42.75c-2.09,0-4,.13-6.15.13-1.56,0-8.36-.26-8.36,2.35s12.42,2.75,14.51,2.75a71.49,71.49,0,0,0,11.77-.65c1-.14,1.7-.53,1.7-1.7C1143.16,32.14,1131.78,32.14,1129.69,32.14Zm-1.31,14c-1.7,0-12.81-.13-12.81,2.09,0,2.75,12.42,2.88,14.51,2.88a92.37,92.37,0,0,0,12.16-.53,1.61,1.61,0,0,0,1.57-1.69C1143.81,45.61,1130.87,46.13,1128.38,46.13Zm12.69,66a20.17,20.17,0,0,0,4,.78c4.18,0,4.71-5.1,4.71-8.23v-3l-.27-.52c-1.83,1.17-8.63,8.63-8.63,10.72Z" transform="translate(-7.52 -8.5)"/><path class="cls-1" d="M1226,35.54a7.39,7.39,0,1,0-8.45-6.16A7.39,7.39,0,0,0,1226,35.54Z" transform="translate(-7.52 -8.5)"/><path class="cls-1" d="M1212.39,44.83h0a7.4,7.4,0,1,0-10.84-10.07h0a7.4,7.4,0,0,0,10.84,10.07Z" transform="translate(-7.52 -8.5)"/><path class="cls-1" d="M1242.94,38.52a7.4,7.4,0,1,0-2.9-10.05A7.39,7.39,0,0,0,1242.94,38.52Z" transform="translate(-7.52 -8.5)"/><path class="cls-1" d="M1233.86,40.61c-11.52-2-27,11.67-25.35,23.67,1.62,11.57,13.51,9,19.4,10s16.19,7.51,21.67-2.81C1255.26,60.82,1245.37,42.64,1233.86,40.61Z" transform="translate(-7.52 -8.5)"/><path class="cls-1" d="M1266.21,46.16h0a7.39,7.39,0,1,0-13.62,5.76h0a7.39,7.39,0,1,0,13.62-5.76Z" transform="translate(-7.52 -8.5)"/><path class="cls-1" d="M1204.94,102.8a5.19,5.19,0,1,0-7-2A5.2,5.2,0,0,0,1204.94,102.8Z" transform="translate(-7.52 -8.5)"/><path class="cls-1" d="M1198.17,112.18h0a5.18,5.18,0,1,0-9.55-4h0a5.18,5.18,0,0,0,9.55,4Z" transform="translate(-7.52 -8.5)"/><path class="cls-1" d="M1216.79,100.71a5.19,5.19,0,1,0-4.32-5.93A5.18,5.18,0,0,0,1216.79,100.71Z" transform="translate(-7.52 -8.5)"/><path class="cls-1" d="M1211.3,104.26c-8.07,1.42-15,14.17-11,21.66,3.84,7.24,11.06,2.71,15.19,2s12.46,1.06,13.6-7.05C1230.25,112.44,1219.37,102.84,1211.3,104.26Z" transform="translate(-7.52 -8.5)"/><path class="cls-1" d="M1233.94,100.16h0a5.18,5.18,0,1,0-7.59,7.06h0a5.18,5.18,0,1,0,7.59-7Z" transform="translate(-7.52 -8.5)"/></svg>